<svg id="visual" viewBox="0 0 900 450" width="900" height="450" xmlns="http://www.w3.org/2000/svg" xmlns:xlink="http://www.w3.org/1999/xlink" version="1.1"><rect x="0" y="0" width="900" height="450" fill="#FFFFFF"></rect><path d="M0 330L21.5 338.5C43 347 86 364 128.8 373.7C171.7 383.3 214.3 385.7 257.2 382.5C300 379.3 343 370.7 385.8 362C428.7 353.3 471.3 344.7 514.2 340.3C557 336 600 336 642.8 335C685.7 334 728.3 332 771.2 329C814 326 857 322 878.5 320L900 318L900 451L878.5 451C857 451 814 451 771.2 451C728.3 451 685.7 451 642.8 451C600 451 557 451 514.2 451C471.3 451 428.7 451 385.8 451C343 451 300 451 257.2 451C214.3 451 171.7 451 128.8 451C86 451 43 451 21.5 451L0 451Z" fill="#c9e7f8" stroke-linecap="round" stroke-linejoin="miter"></path></svg>