<svg id="visual" viewBox="0 0 900 600" width="900" height="600" xmlns="http://www.w3.org/2000/svg" xmlns:xlink="http://www.w3.org/1999/xlink" version="1.1"><rect x="0" y="0" width="900" height="600" fill="#FFFFFF"></rect><path d="M0 545L21.5 544.5C43 544 86 543 128.8 536.8C171.7 530.7 214.3 519.3 257.2 520.8C300 522.3 343 536.7 385.8 533C428.7 529.3 471.3 507.7 514.2 498C557 488.3 600 490.7 642.8 490.8C685.7 491 728.3 489 771.2 494.3C814 499.7 857 512.3 878.5 518.7L900 525L900 601L878.5 601C857 601 814 601 771.2 601C728.3 601 685.7 601 642.8 601C600 601 557 601 514.2 601C471.3 601 428.7 601 385.8 601C343 601 300 601 257.2 601C214.3 601 171.7 601 128.8 601C86 601 43 601 21.5 601L0 601Z" fill="#c9e7f8" stroke-linecap="round" stroke-linejoin="miter"></path></svg>